<svg xmlns="http://www.w3.org/2000/svg" viewBox="0 0 425.2 425.2"><defs><style>.cls-1{fill:#ede8d1;}.cls-2{fill:#ab6f4c;}.cls-3{fill:none;}</style></defs><title>Logo Affeto</title><g id="Camada_1" data-name="Camada 1"><rect class="cls-1" width="425.2" height="425.2"/></g><g id="Camada_3" data-name="Camada 3"><path class="cls-2" d="M240.42,186.09c-.61-.58-1.1.27-2.73,1.36h0c-13.42,11.8-34,14.25-39.77,17.77a13.21,13.21,0,0,0-5.22,6.24c-1.79,4.12-3.59,8.25-5.28,12.41a3.66,3.66,0,0,0-.14,2.67c3.65,7.15,2.94,14.62,1.62,22.08-1.54,8.68-5,16.75-9,24.46-6.39,12.18-13.33,24.07-20,36.09-4.34,7.8-8.6,15.65-13,23.43a54.55,54.55,0,0,1-4.06,6,4.91,4.91,0,0,1-2.22,1.66,3.38,3.38,0,0,1-2.57-.17c-.43-.29-.51-1.59-.28-2.29,1.6-5,3.29-10.08,5-15.1,5.27-15.5,10.3-31.1,15.91-46.48,4.73-13,10.14-25.72,15.25-38.56,1.42-3.56,2.88-7.11,4.28-10.68a2.89,2.89,0,0,0-.77-3.06c-1.5-1.21-3.48-.82-5.23-1.26-.84-.21-2.21-.44-2.38-1.22s.75-1.55,1.36-2c4.5-3,9.07-6,13.61-9a5.16,5.16,0,0,0,1.81-1.49q5.58-10.37,11-20.81c.23-.44.73-1.62.4-2s-1.91.79-2.56,1.24c-6.37,4.34-31.1,26.66-38,30.69-4.25,2.48-8.73,3.82-13.68,2.64s-7.56-4.36-8.07-9.31c-.7-6.81,1-13.21,3.36-19.47,5-13.14,11.55-25.57,18.27-37.88,8.29-15.21,17-30.21,25.56-45.28a18.83,18.83,0,0,1,2.37-3.24.81.81,0,0,0-.77-1.35c-1.46.32-2.93.62-4.35,1.08a15.85,15.85,0,0,1-5.56.82c-14.77-.31-29.57-.48-44,3.74-5.14,1.5-10,3.65-13.92,7.4a17.62,17.62,0,0,0-5.74,12.67,6,6,0,0,0,2.6,5.37.15.15,0,0,1,0,.22c-2,1.87-3.17,1.66-4.64-.87-5.15-8.81-3.61-17.52,4.57-23.43a28,28,0,0,1,5.85-3.1A81.13,81.13,0,0,1,149.47,102q20.35-.15,40.7-.4a9,9,0,0,0,3.09-.67c4.38-1.69,8.67-3.64,13.12-5.12a28.88,28.88,0,0,1,7.1-1,7.24,7.24,0,0,1,2.47.76l0,.82a9,9,0,0,1-2.49.48c-5.09-.51-8.7,2-11.93,5.51-6.63,7.31-11.67,15.73-16.68,24.15-11.1,18.65-21.64,37.61-30.41,57.47-3.1,7-5.52,14.39-7.93,21.71A19.2,19.2,0,0,0,146,213c.28,3.5,2.56,5,6.06,4.39,3.71-.61,6.74-2.61,9.56-4.91,7-5.78,20.62-19.67,35.46-28.73h0c5.52-4.55,8.24-11,11.08-17.3,5.37-11.93,10.66-23.9,16.27-35.72,1.73-3.66,4.31-6.94,6.68-10.27a10.52,10.52,0,0,1,3.33-2.84c2-1.13,3.3-.3,3.63,2a19.1,19.1,0,0,1-1.93,10.76,205.27,205.27,0,0,1-21,36.6c-7.33,10.11-12.6,21.36-17.22,32.93a17,17,0,0,0-.57,2.53.14.14,0,0,0,.19.16l3.36-1.07c5.5-1.69,9.84-2.81,16.51-5.06,12.78-4,15.69-7.46,17.39-8.66,8.13-5.74,12.63-14,16.45-22.89,5.09-11.83,10.5-23.53,16.08-35.14,1.75-3.64,4.42-6.87,6.89-10.12,1.14-1.51,2.78-3.18,4.94-2.24,2,.86,1.35,3,1.34,4.69,0,4.65-2,8.72-4,12.77a251.1,251.1,0,0,1-20.89,34.85C249,179,244.35,189.43,240.15,200a8.24,8.24,0,0,0-.38,1.35c-.05.25-.35.59.06,1.07s1.62-.19,2.31-.46c6.67-2.69,13.35-5.3,20.64-5.86.66,0,1.44-1.06,1.83-1.81,3.16-6,7.2-11.32,13.46-14.24a37.63,37.63,0,0,1,10.58-2.94c3.72-.54,5.84,3.56,3.94,7.29-1.66,3.26-4.63,5-8,6a50.49,50.49,0,0,1-7.24,1.36,6.35,6.35,0,0,0-4.67,3.09c-3.94,6.82-.82,13.49,6.77,14.32,10.42,1.14,20.1-1.4,29.3-6.17,2.39-1.23,4.81-2.4,7.12-3.75a3.78,3.78,0,0,0,1.68-2c3.89-16.79,11.09-32.34,17.67-48.14,2-4.89,3.95-9.84,5.95-14.75.52-1.28.41-2.07-1.15-2.51-8.1-2.29-14.65-7.09-20.66-12.81a171.11,171.11,0,0,0-13.3-12c-9.94-7.63-20.87-8.43-32.28-3.51a10.47,10.47,0,0,0-1.77,1.18.15.15,0,0,1-.21,0,1.91,1.91,0,0,1,1-3c3.25-1.37,6.52-2.91,9.95-3.58,10-2,19.72-.58,28.25,5,4.09,2.67,7.11,7,10.55,10.63a16.78,16.78,0,0,1,2.17,3.15c3.89,6.69,10.19,10.06,17.15,12.56,1.57.57,2.43.24,3.15-1.32,3.14-6.83,6.42-13.6,9.59-20.41a7.33,7.33,0,0,1,7.71-4.08c1.64.29,2,1.22,1.31,2.6q-3.36,7.2-6.77,14.38c-1.32,2.79-2.72,5.54-4.06,8.32-1,2-.63,2.61,1.64,2.39,4.81-.45,9.63-.9,14.38-1.74,10.63-1.89,21.19-4.19,31.84-6,4.45-.74,9.07-.55,13.61-.72a5.43,5.43,0,0,1,2.11.6c-6.22-.57-12,1.52-17.72,3.23a155.11,155.11,0,0,1-44.59,6.94,3.49,3.49,0,0,0-3.73,2.49c-8,18.55-15.59,37.28-21.81,56.52-1.5,4.64-3,9.42-3.46,14.23-.61,6.71-.39,13.64,2.38,20a11.79,11.79,0,0,0,2.25,3.46.82.82,0,0,1-.71,1.38,9.51,9.51,0,0,1-6.35-4.22,31.36,31.36,0,0,1-5-14.74,87.46,87.46,0,0,1-.11-9c0-.87.08-1.73.15-2.95a.14.14,0,0,0-.2-.14,22.4,22.4,0,0,0-2.16,1c-7.37,4.46-14.95,8.51-23.28,10.89-6.26,1.78-12.58,2.87-19.05,1.09s-9.21-5.59-9.13-12.16c0-3.17-.09-3.36-3.27-3.07a40.75,40.75,0,0,0-20,7.3c-2.16,1.53-3.72,4.19-5,6.64-2,3.8-3.47,7.85-5.09,11.83a2.79,2.79,0,0,0-.08,2.08c3.54,6.63,3,13.64,2,20.67-1.23,8.84-4.7,17-8.73,24.77-6.35,12.27-13.3,24.23-20,36.32-4.74,8.58-9.4,17.2-14.28,25.7a29.15,29.15,0,0,1-4.92,6c-.58.57-1.93.36-3,.47a.15.15,0,0,1-.15-.12c-.13-.94-.54-2-.27-2.78,7.93-23.31,15.7-46.69,24-69.86,4.6-12.82,10.15-25.29,15.27-37.91.23-.56.45-1.12.65-1.69,1.11-3.16.4-4.44-2.92-5.06-1-.19-2.16,0-3.19-.26a2.44,2.44,0,0,1-1.66-1.17,2.12,2.12,0,0,1,.84-1.77c4.5-3.05,9.07-6,13.57-9a8.6,8.6,0,0,0,2.83-2.69c3.48-6.43,6.81-12.94,10.16-19.44C240,188,241,186.66,240.42,186.09Zm-12,43.35a.14.14,0,0,0-.27,0c-.41,1.09-1.44,1.92-1.89,3-2.74,6.55-5.58,13.07-8.12,19.71-6.61,17.29-13,34.65-19.62,51.95-2.48,6.51-5.21,12.94-7.79,19.42a9.33,9.33,0,0,0-.34,2.07l.6.17c.33-.53.69-1.05,1-1.6,4.34-8.24,8.42-16.63,13.07-24.7,6.82-11.86,14.38-23.3,19.74-36,3.6-8.51,5.94-17.26,5.17-26.59C229.78,234.38,228.89,231.93,228.45,229.44Zm-80.52,96,.91.3c.74-1.6,1.37-3.26,2.23-4.8,5.84-10.49,11.59-21,17.62-31.39s12.1-20.61,16-32c2.39-6.91,3.73-14,2.9-21.34a11,11,0,0,0-2.05-6.1.16.16,0,0,0-.25,0,29.74,29.74,0,0,0-1.83,3.18c-2.39,5.69-4.86,11.35-7,17.12-5.43,14.43-10.61,29-16.11,43.36-3.61,9.46-7.61,18.77-11.4,28.16A34.47,34.47,0,0,0,147.93,325.41Zm69.37-168.9.5.24a9.09,9.09,0,0,0,.93-1.14c4.4-7.6,8.87-15.16,13.1-22.86a60,60,0,0,0,4-9.6c.31-.91-.34-2.15-.63-3.26a.14.14,0,0,0-.23-.07,10.42,10.42,0,0,0-2.18,2.05,150.2,150.2,0,0,0-13.48,28.27C218.6,152.24,218,154.39,217.3,156.51Zm42.31-.08.57.3a11.69,11.69,0,0,0,.93-1.2c3.82-6.54,7.76-13,11.39-19.66a110.53,110.53,0,0,0,5.6-12.22c.4-1-.2-2.43-.43-3.7a.14.14,0,0,0-.23-.08L275.06,122a2.23,2.23,0,0,0-.37.5c-4.05,8.41-8.18,16.78-12.1,25.24A83.41,83.41,0,0,0,259.61,156.43Zm18.26,34s.06,0,.08,0a59.6,59.6,0,0,0,7.51-2.16c2.74-1.15,4.81-3.19,5-6.46.16-2.87-1.19-3.79-3.87-2.79a21.08,21.08,0,0,0-10.28,8.6c-.37.57-.76,1.49-.54,2S277,190.15,277.87,190.48ZM185.34,212.6l-.2-.18c-2.3,1.84-4.65,3.62-6.93,5.48-.75.61-1.45,1.29-.46,2.31s3,1.46,3.52.5C182.78,218.09,183.92,215.26,185.34,212.6Zm42.47-.13a.14.14,0,0,0-.2-.18c-2.32,1.9-4.72,3.7-7,5.61-.71.59-1.63,1.34-.49,2.27s2.48,1.94,3.48.52C225.34,218.2,226.2,215.07,227.81,212.47Z"/><path class="cls-2" d="M102,169.45a.44.44,0,0,0-.25-.7,8.22,8.22,0,0,0-1.24-.2c-10.33-.39-20.66-1.05-31-1a43,43,0,0,0-12.44,2,14.17,14.17,0,0,0-10,13.49v2.59a.43.43,0,0,1-.48.43c-1.7-.21-3.44-.4-4-2.08-.63-1.84-1.26-3.8.06-5.91a17.54,17.54,0,0,1,7.83-6.41c9.49-4.51,19.26-8.51,29.81-9.32a219.75,219.75,0,0,1,24.35,0c3.36.12,5.88-.34,8.36-2.95,10.51-11,21.2-21.91,31.94-32.73,7.38-7.43,15.61-13.74,25.4-17.79.8-.33,1.62-.63,2.44-.93a9.38,9.38,0,0,0,1.77-.73c-4.84,3.1-9.81,6-14.47,9.33-7.71,5.52-13.56,13-19.94,19.87-7.48,8.08-14.81,16.3-22.2,24.46h0a1.09,1.09,0,0,0,.8,1.79c10.6.34,21.2,2,31.59-1.44a.42.42,0,0,1,.54.54,12.25,12.25,0,0,1-7,6,23.78,23.78,0,0,1-6.5,1.22c-8.33.16-16.66.15-25,.1a5.59,5.59,0,0,0-4,1.69c-13,13.28-26.49,25.9-41.71,36.6-8.71,6.12-17.84,11.5-28,14.78-6,1.93-12.1,3.09-18.43,2.14a12,12,0,0,1-10.33-11.4c-.46-6.63,2.53-12.08,5.59-17.54a1.44,1.44,0,0,1,.44-.41,2.83,2.83,0,0,1,.66-.1,41.41,41.41,0,0,0-1.71,4.5,42.89,42.89,0,0,0-1.28,6A9.81,9.81,0,0,0,21,215.7c5,1.25,9.87.42,14.7-.89,10.45-2.83,19.63-8.28,28.5-14.27,13.22-8.93,25.28-19.31,37-30.12A9.19,9.19,0,0,0,102,169.45Z"/><path class="cls-2" d="M405,196.16c-4.86,5.16-10.67,6.67-16.8,7.05a99.69,99.69,0,0,1-13.05-.09,4.07,4.07,0,0,0-4.22,2.09c-5.26,7.48-12.32,11.57-21.7,11.15a4.38,4.38,0,0,1-4.11-2.66,14,14,0,0,1-.06-13.15c2.35-4.72,2.35-4.72-1.61-8.25-5.78-5.15-6.71-10.9-2.82-17.7a16.72,16.72,0,0,1,11.62-8.21c5.59-.8,9.08-.74,14.41,1.41,3.58,1.45,6.52,4.66,8.76,8.35a27,27,0,0,1,.14,21.34c-.22.57-.41,1.14-.64,1.7-.46,1.12-.23,1.7,1.09,1.92,9.13,1.54,17.91.67,26.21-3.68C403,197,403.79,196.72,405,196.16Zm-30.58-9.6c-.58-5.11-.88-6.08-2-8.64-2.23-5-6.81-7.46-11.91-8.74-4.57-1.15-9.11-1.06-13.08,2-7.18,5.5-6.2,18,1.75,22.26a1.76,1.76,0,0,0,1.67-.3,7.34,7.34,0,0,1,6.3-2.77c2.39.54,3.91,1.49,3,4.76a4.18,4.18,0,0,1-.31.76c-.63,1.31-.19,2.33,1.1,2.69,2.44.69,4.93,1.21,7.41,1.69a2.74,2.74,0,0,0,3.45-2.29C373.88,193.76,374.2,190.36,374.45,186.56Zm-22.17,23.65c0,2.51.72,3.25,2.58,3,2.17-.54,9.36-2.45,13.58-9.5.52-.9.31-1.43-.83-1.68-2.16-.46-4.26-1.28-6.43-1.57-1.35-.19-3.29-.18-4.11.61A17.73,17.73,0,0,0,352.28,210.21Z"/><path class="cls-3" d="M228.62,230.35a51.59,51.59,0,0,1,1.37,6.53c.77,9.33-1.57,18.08-5.17,26.59-5.36,12.66-12.92,24.1-19.74,36-4.65,8.07-8.73,16.46-13.07,24.7-.3.55-.66,1.07-1,1.6l-.6-.17a9.33,9.33,0,0,1,.34-2.07c2.58-6.48,5.31-12.91,7.79-19.42,6.59-17.3,13-34.66,19.62-51.95,2.54-6.64,5.38-13.16,8.12-19.71a12.84,12.84,0,0,1,1.4-2.08Z"/><path class="cls-3" d="M147.93,325.41a34.47,34.47,0,0,1,1-3.47c3.79-9.39,7.79-18.7,11.4-28.16,5.5-14.4,10.68-28.93,16.11-43.36,2.18-5.77,4.65-11.43,7-17.12a32.06,32.06,0,0,1,1.94-3.36,10.71,10.71,0,0,1,2.19,6.27c.83,7.34-.51,14.43-2.9,21.34-3.93,11.36-10,21.64-16,32s-11.78,20.9-17.62,31.39c-.86,1.54-1.49,3.2-2.23,4.8Z"/><path class="cls-3" d="M217.3,156.51c.68-2.12,1.3-4.27,2.06-6.37a150.2,150.2,0,0,1,13.48-28.27,12.37,12.37,0,0,1,2.35-2.2c.26,1.17,1,2.51.69,3.48a60,60,0,0,1-4,9.6c-4.23,7.7-8.7,15.26-13.1,22.86a9.09,9.09,0,0,1-.93,1.14Z"/><path class="cls-3" d="M259.61,156.43a83.41,83.41,0,0,1,3-8.66c3.91-8.44,8-16.78,12.07-25.16a1.54,1.54,0,0,1,.33-.51c.87-.81,1.76-1.6,2.64-2.4.19,1.33.9,2.87.47,4a110.53,110.53,0,0,1-5.6,12.22c-3.63,6.65-7.57,13.12-11.39,19.66a11.69,11.69,0,0,1-.93,1.2Z"/><path class="cls-3" d="M277.91,190.49c-.92-.34-1.93-.41-2.14-.85s.17-1.4.54-2a21.08,21.08,0,0,1,10.28-8.6c2.68-1,4-.08,3.87,2.79-.19,3.27-2.26,5.31-5,6.46A60.22,60.22,0,0,1,277.91,190.49Z"/><path class="cls-3" d="M184.5,214.25c-1.06,2.16-2,4.37-3.23,6.46-.55,1-2.48.56-3.52-.5s-.29-1.7.46-2.31c1.78-1.45,3.6-2.85,5.41-4.27Z"/><path class="cls-3" d="M226.84,214.25a46.26,46.26,0,0,1-3.26,6.44c-1,1.42-2.46.3-3.48-.52s-.22-1.68.49-2.27c1.77-1.46,3.58-2.87,5.38-4.3Z"/></g></svg>